REM DIRINDEX 1\2,1\3
REM DIRNAME cjc133,folder01,folder02
TITLE ""
FILE "DISC1Track12.mp3" MP3
  TRACK 01 AUDIO
    TITLE "0:"
    INDEX 01 00:00:00
  TRACK 02 AUDIO
    TITLE "3:cjc133_0508"
    INDEX 01 00:00:13
  TRACK 03 AUDIO
    TITLE "0:"
    INDEX 01 00:01:21
  TRACK 04 AUDIO
    TITLE "2:cjc133_0509"
    INDEX 01 00:01:64
  TRACK 05 AUDIO
    TITLE "2:cjc133_0510"
    INDEX 01 00:04:36
  TRACK 06 AUDIO
    TITLE "2:cjc133_0511"
    INDEX 01 00:07:05
  TRACK 07 AUDIO
    TITLE "0:"
    INDEX 01 00:08:58
  TRACK 08 AUDIO
    TITLE "2:cjc133_0512"
    INDEX 01 00:09:34
  TRACK 09 AUDIO
    TITLE "2:cjc133_0513"
    INDEX 01 00:11:15
  TRACK 10 AUDIO
    TITLE "2:cjc133_0514"
    INDEX 01 00:13:65
  TRACK 11 AUDIO
    TITLE "0:"
    INDEX 01 00:15:42
  TRACK 12 AUDIO
    TITLE "2:cjc133_0515"
    INDEX 01 00:16:16
  TRACK 13 AUDIO
    TITLE "2:cjc133_0516"
    INDEX 01 00:19:18
  TRACK 14 AUDIO
    TITLE "2:cjc133_0517"
    INDEX 01 00:21:70
  TRACK 15 AUDIO
    TITLE "0:"
    INDEX 01 00:23:53
  TRACK 16 AUDIO
    TITLE "2:cjc133_0518"
    INDEX 01 00:24:27
  TRACK 17 AUDIO
    TITLE "2:cjc133_0519"
    INDEX 01 00:25:66
  TRACK 18 AUDIO
    TITLE "2:cjc133_0520"
    INDEX 01 00:28:57
  TRACK 19 AUDIO
    TITLE "0:"
    INDEX 01 00:30:50
  TRACK 20 AUDIO
    TITLE "2:cjc133_0521"
    INDEX 01 00:31:29
  TRACK 21 AUDIO
    TITLE "2:cjc133_0522"
    INDEX 01 00:33:24
  TRACK 22 AUDIO
    TITLE "2:cjc133_0523"
    INDEX 01 00:36:23
  TRACK 23 AUDIO
    TITLE "0:"
    INDEX 01 00:38:24
  TRACK 24 AUDIO
    TITLE "2:cjc133_0524"
    INDEX 01 00:39:03
  TRACK 25 AUDIO
    TITLE "2:cjc133_0525"
    INDEX 01 00:41:47
  TRACK 26 AUDIO
    TITLE "2:cjc133_0526"
    INDEX 01 00:44:24
  TRACK 27 AUDIO
    TITLE "0:"
    INDEX 01 00:46:25
  TRACK 28 AUDIO
    TITLE "2:cjc133_0527"
    INDEX 01 00:46:74
  TRACK 29 AUDIO
    TITLE "2:cjc133_0528"
    INDEX 01 00:49:02
  TRACK 30 AUDIO
    TITLE "2:cjc133_0529"
    INDEX 01 00:51:42
  TRACK 31 AUDIO
    TITLE "0:"
    INDEX 01 00:53:15
  TRACK 32 AUDIO
    TITLE "2:cjc133_0530"
    INDEX 01 00:53:68
  TRACK 33 AUDIO
    TITLE "2:cjc133_0531"
    INDEX 01 00:56:27
  TRACK 34 AUDIO
    TITLE "2:cjc133_0532"
    INDEX 01 00:58:54
  TRACK 35 AUDIO
    TITLE "0:"
    INDEX 01 01:00:15
  TRACK 36 AUDIO
    TITLE "2:cjc133_0533"
    INDEX 01 01:00:68
  TRACK 37 AUDIO
    TITLE "2:cjc133_0534"
    INDEX 01 01:03:31
  TRACK 38 AUDIO
    TITLE "2:cjc133_0535"
    INDEX 01 01:06:14
  TRACK 39 AUDIO
    TITLE "0:"
    INDEX 01 01:08:17
  TRACK 40 AUDIO
    TITLE "2:cjc133_0536"
    INDEX 01 01:08:64
  TRACK 41 AUDIO
    TITLE "2:cjc133_0537"
    INDEX 01 01:10:63
  TRACK 42 AUDIO
    TITLE "2:cjc133_0538"
    INDEX 01 01:13:47
  TRACK 43 AUDIO
    TITLE "0:"
    INDEX 01 01:15:42
  TRACK 44 AUDIO
    TITLE "2:cjc133_0539"
    INDEX 01 01:16:16
  TRACK 45 AUDIO
    TITLE "2:cjc133_0540"
    INDEX 01 01:17:20
  TRACK 46 AUDIO
    TITLE "2:cjc133_0541"
    INDEX 01 01:20:10
  TRACK 47 AUDIO
    TITLE "0:"
    INDEX 01 01:22:07
  TRACK 48 AUDIO
    TITLE "2:cjc133_0542"
    INDEX 01 01:22:52
  TRACK 49 AUDIO
    TITLE "2:cjc133_0543"
    INDEX 01 01:25:19
  TRACK 50 AUDIO
    TITLE "2:cjc133_0544"
    INDEX 01 01:28:06
  TRACK 51 AUDIO
    TITLE "0:"
    INDEX 01 01:30:03
  TRACK 52 AUDIO
    TITLE "2:cjc133_0545"
    INDEX 01 01:30:56
  TRACK 53 AUDIO
    TITLE "2:cjc133_0546"
    INDEX 01 01:32:25
  TRACK 54 AUDIO
    TITLE "2:cjc133_0547"
    INDEX 01 01:35:14
  TRACK 55 AUDIO
    TITLE "0:"
    INDEX 01 01:37:07
  TRACK 56 AUDIO
    TITLE "2:cjc133_0548"
    INDEX 01 01:37:54
  TRACK 57 AUDIO
    TITLE "2:cjc133_0549"
    INDEX 01 01:41:22
  TRACK 58 AUDIO
    TITLE "2:cjc133_0550"
    INDEX 01 01:43:64
  TRACK 59 AUDIO
    TITLE "0:"
    INDEX 01 01:45:51
  TRACK 60 AUDIO
    TITLE "2:cjc133_0551"
    INDEX 01 01:46:23
  TRACK 61 AUDIO
    TITLE "2:cjc133_0552"
    INDEX 01 01:48:36
  TRACK 62 AUDIO
    TITLE "2:cjc133_0553"
    INDEX 01 01:51:44
  TRACK 63 AUDIO
    TITLE "0:"
    INDEX 01 01:53:61
